<svg xmlns="http://www.w3.org/2000/svg" role="img" version="1.1" height="30" width="138" viewBox="0 0 138 30" class="gh-wordmark" focusable="false" aria-hidden="true">
			<title id="gh-wm-scopus-preview">Scopus Preview</title>
			<g fill="#f36d21">
				<path class="a" d="M4.23,21a9.79,9.79,0,0,1-4.06-.83l.29-2.08a7.17,7.17,0,0,0,3.72,1.09c2.13,0,3-1.22,3-2.39C7.22,13.85.3,13.43.3,9c0-2.37,1.56-4.29,5.2-4.29a9.12,9.12,0,0,1,3.77.75l-.1,2.08a7.58,7.58,0,0,0-3.67-1c-2.24,0-2.91,1.22-2.91,2.39,0,3,6.92,3.61,6.92,7.8C9.5,19.1,7.58,21,4.23,21Z"></path>
				<path class="a" d="M20.66,20A6.83,6.83,0,0,1,16.76,21c-3,0-5.23-2.18-5.23-6.29,0-4.29,2.91-6.11,5.28-6.11,2.16,0,3.67.54,3.85,2.11,0,.23,0,.57,0,.86H18.81c0-1-.55-1.25-1.9-1.25a2.85,2.85,0,0,0-1.35.21c-.21.13-1.85.94-1.85,4.11s1.9,4.65,3.59,4.65a5.91,5.91,0,0,0,3.2-1.2Z"></path>
				<path class="a" d="M27.29,21c-3.28,0-5.46-2.44-5.46-6.19,0-3.46,2-6.21,5.75-6.21,3.3,0,5.49,2.37,5.49,6.21C33.06,18.5,30.85,21,27.29,21Zm0-10.69a3.3,3.3,0,0,0-2,.65A5.83,5.83,0,0,0,24,14.73c0,3.74,2,4.6,3.56,4.6a3.45,3.45,0,0,0,2-.65A5.53,5.53,0,0,0,30.9,15C30.9,12.86,30.2,10.36,27.31,10.36Z"></path>
				<path class="a" d="M40.37,21a5.63,5.63,0,0,1-2.6-.57v5.46h-2V12.23c0-.91-.05-1.72-.1-2.31l-.1-1H37.4l.31,1.74a4.86,4.86,0,0,1,4-2.05c2.39,0,4.26,1.56,4.26,5.72S43.69,21,40.37,21Zm.91-10.61a4.49,4.49,0,0,0-1.56.31,11.57,11.57,0,0,0-2,2.11v5.8a4.35,4.35,0,0,0,.7.34,4.12,4.12,0,0,0,1.61.34c2.57,0,3.74-1.9,3.74-4.73C43.82,12.94,43.51,10.44,41.27,10.44Z"></path>
				<path class="a" d="M58.36,20.74H56.54L56.22,19a4.06,4.06,0,0,1-3.85,2.05c-2.08,0-3.77-.86-3.77-3.87V9h2V15.8c0,1.92.16,3.54,2,3.54a4.47,4.47,0,0,0,2-.47,6.77,6.77,0,0,0,1.64-2.08V9h2v8.53a19,19,0,0,0,.1,2.31Z"></path>
				<path class="a" d="M64.86,21.07a6.87,6.87,0,0,1-3.67-1l.23-1.87a5.54,5.54,0,0,0,3.28,1.2c1.66,0,2.44-.75,2.44-1.66,0-2.39-5.88-2.26-5.88-5.9,0-1.77,1.38-3.22,4.21-3.22a6.59,6.59,0,0,1,3.38.88l-.21,1.87a4.67,4.67,0,0,0-3.15-1.14c-1.33,0-2.24.52-2.24,1.46,0,2.37,5.88,2.16,5.88,5.9C69.15,19.36,67.85,21.07,64.86,21.07Z"></path>
			</g>
			<g fill="#a7a8aa">
				<path class="b" d="M80,16.46a16.24,16.24,0,0,1-1.88-.1v4.38H76.52V8.65h3.92a3.78,3.78,0,0,1,4.1,3.82C84.54,14.83,82.24,16.46,80,16.46ZM79.9,9.93H78.1v5.12s.72.08,1.28.08c1.78,0,3.36-.6,3.36-2.66C82.74,10.77,81.8,9.93,79.9,9.93Z"></path>
				<path class="b" d="M91.74,13.12l-1.26.36c0-.14-.06-.74-.64-.74-.88,0-1.6,1.46-1.92,2.24v5.76H86.38V14.15a14.56,14.56,0,0,0-.08-1.76l-.08-.72h1.42l.26,1.44A2.48,2.48,0,0,1,90,11.45a1.53,1.53,0,0,1,1.74,1.32c0,.14,0,.22,0,.24Z"></path>
				<path class="b" d="M94,16v.3c0,2.16,1.06,3.34,3,3.34a4.9,4.9,0,0,0,2.84-.94l.12,1.4A6.1,6.1,0,0,1,96.5,21c-2.28,0-4.08-1.76-4.08-4.74s1.7-4.8,4-4.8c2.78,0,3.64,1.44,3.64,4.58Zm4.68-1.2c-.06-1.76-.84-2.08-2.34-2.08a2.91,2.91,0,0,0-1.2.28,2.85,2.85,0,0,0-1,1.8Z"></path>
				<path class="b" d="M105.28,18.4l2.36-6.72h1.52l-3.38,9.06H104.6L101,11.67h1.64Z"></path>
				<path class="b" d="M111.54,10.09a1.11,1.11,0,0,1-1-1.12,1,1,0,1,1,2,0A1.15,1.15,0,0,1,111.54,10.09Zm-.76,1.58h1.54v9.06h-1.54Z"></path>
				<path class="b" d="M116,16v.3c0,2.16,1.06,3.34,3,3.34a4.9,4.9,0,0,0,2.84-.94l.12,1.4a6.1,6.1,0,0,1-3.44.86c-2.28,0-4.08-1.76-4.08-4.74s1.7-4.8,4-4.8c2.78,0,3.64,1.44,3.64,4.58Zm4.68-1.2c-.06-1.76-.84-2.08-2.34-2.08a2.91,2.91,0,0,0-1.2.28,2.85,2.85,0,0,0-1,1.8Z"></path>
				<path class="b" d="M132.24,18.34l2.18-6.66h1.52l-3.14,9.06h-1.16l-2.14-5.68-2,5.68h-1.16L123,11.67h1.64l2.44,6.66,2.44-7.06Z"></path>
			</g>
		</svg>
